<?xml version="1.0" encoding="utf-8"?>
<!-- Generator: Adobe Illustrator 27.5.0, SVG Export Plug-In . SVG Version: 6.00 Build 0)  -->
<svg version="1.1" id="Ebene_1" xmlns="http://www.w3.org/2000/svg" xmlns:xlink="http://www.w3.org/1999/xlink" x="0px" y="0px"
	 viewBox="0 0 467.4 370.5" style="enable-background:new 0 0 467.4 370.5;" xml:space="preserve">
<style type="text/css">
	.st0{fill:#0069B4;}
</style>
<path class="st0" d="M335.9,186.3l-18.8-4.4l16-10.8l-23.9-0.3l0.5,2.8l15.1-0.1v0.1L311,183l16.3,3.9v0.1l-14.1,5.3l0.5,2.8
	L335.9,186.3L335.9,186.3z M324.1,157.2l2.3-1.2l-5.6-10.7l-20,10.4l5.6,10.7l2.3-1.2l-4.3-8.2l7.5-3.9l4.2,8l2.3-1.2l-4.1-8
	l5.6-2.9L324.1,157.2L324.1,157.2z M305.8,142.8c5.5-5.1,4.3-11.7-0.3-16.8l-3.1-3.4l-16.6,15.2l3.1,3.4
	C293.6,146.4,300.2,148,305.8,142.8L305.8,142.8z M303.8,140.8c-4.8,4.4-9.7,2.2-13.6-2l-0.7-0.7l12.8-11.8l0.7,0.7
	C306.9,131.3,308.7,136.4,303.8,140.8L303.8,140.8z M281.8,134.7l2.9-25.6l-21.3,14.6l2.6,1.6l5.1-3.5l8.9,5.3l-0.7,6.2L281.8,134.7
	L281.8,134.7z M281.5,114.3l-1.3,9.9l-6.9-4.1L281.5,114.3L281.5,114.3z M253.7,108.7l12.3-7.3l-3.6-0.9l-11.6,7.1l2.4-9.5l-2.7-0.7
	l-5.5,21.8l2.7,0.7l2.3-9.1l1.4-0.8l5.7,12.2l3.7,0.9L253.7,108.7L253.7,108.7z M236.7,118.7l3-0.1l-11.4-23.1l-10,23.8l3-0.1
	l2.4-5.7l10.3-0.3L236.7,118.7L236.7,118.7z M232.7,110.6l-8,0.2l3.7-9.2L232.7,110.6L232.7,110.6z M210.9,110.7l-0.3-0.8l-8.4,3.1
	l0.9,2.4l5.5-2c1.2,3.5-1.3,7.6-4.6,8.8c-4.6,1.7-9.8-1.1-11.4-5.6c-1.8-4.7,0.5-9.9,5.2-11.7c2.6-1,5.6-0.5,7.9,1l1.2-2.4
	c-3-1.8-6.8-2.1-10.1-0.9c-6.1,2.3-9.1,9-6.8,15.1c2.2,5.8,8.8,9.2,14.7,7C210.6,122.4,213.1,116.5,210.9,110.7L210.9,110.7z
	 M179.2,127.3c2.4-2.3,2.5-5.7,0.5-8.3c-1.3-1.7-3.4-2.8-5.6-2.5c-2,0.3-3.8,1.5-5.4,2.8l-2.7,2l13.6,17.9l2.2-1.7l-5.7-7.6l0.9-0.7
	l11,3.6l2.7-2.1L179.2,127.3L179.2,127.3z M175.4,127.6l-0.7,0.5l-4.9-6.5l0.6-0.5c2.2-1.7,5.2-3.3,7.3-0.5
	C179.8,123.6,177.7,125.9,175.4,127.6L175.4,127.6z M158.4,142.8l-4.9-4l5.9-7.2l-2-1.6l-7.6,9.4l17.4,14.2l7.6-9.4l-2-1.6l-5.9,7.2
	l-6.6-5.4l5.7-7l-2-1.6L158.4,142.8L158.4,142.8z M151.1,158c0-1.7-1.3-3.3-2.8-4c-4.6-2.2-7.3,1-9.1,4.8l-1.2,2.5l20.3,9.7l2.3-4.7
	c1.7-3.6,1.7-7.8-2.3-9.8C155.9,155.3,152.7,155.8,151.1,158L151.1,158L151.1,158z M148.5,162.4l-0.3,0.6l-6.7-3.2l0.3-0.7
	c1.1-2.4,2.5-4.1,5.4-2.7C150.1,157.8,149.6,160,148.5,162.4L148.5,162.4z M150.9,162.4c1.1-2.3,3.1-4.9,5.9-3.5
	c2.9,1.4,2.4,4.2,1.3,6.5l-0.9,1.9l-7-3.3L150.9,162.4L150.9,162.4z M145.7,189.1l-14.2-0.3l-0.1,2.8l13.3,0.3c3.7,0.1,7,1.2,7,5.6
	c-0.1,4.3-3.5,5.4-7.2,5.3l-13.3-0.3l-0.1,2.8l14.2,0.3c5,0.1,8.8-2.9,8.9-8.1C154.4,192.4,150.7,189.2,145.7,189.1L145.7,189.1z
	 M135.1,215.5l-2.5,0.6l3.1,13.1l2.5-0.6l-1.2-5.2l19.4-4.6l-0.6-2.7l-19.4,4.6L135.1,215.5L135.1,215.5z M174.9,252.8l-15.1,16.7
	l2.1,1.9l7.4-8.2l5.8,5.2l1.7-1.9l-5.8-5.2l4.2-4.7l6,5.4l1.7-1.9L174.9,252.8L174.9,252.8z M186.9,263.6l-11.1,19.6l2.4,1.4
	l4.7-8.3l1,0.6l1.1,11.5l3,1.7l-1.3-12c3,1.3,6.2,0,7.8-2.8c1.1-1.9,1.2-4.2,0.1-6.1c-1.1-1.8-2.9-2.9-4.6-3.8L186.9,263.6
	L186.9,263.6z M184.1,274.2l4-7.1l0.6,0.4c2.4,1.4,5.1,3.5,3.3,6.5c-1.8,3.1-4.7,2-7.2,0.6L184.1,274.2L184.1,274.2z M202.7,272.3
	l-6.6,21.5l11.6,3.5l0.7-2.5l-8.9-2.7l2.5-8.1l8.6,2.6l0.7-2.5l-8.6-2.6l1.8-6l8.9,2.7l0.7-2.5L202.7,272.3L202.7,272.3z M220.3,277
	l-2.7,22.3l2.8,0.3l2.7-22.3L220.3,277L220.3,277z M232.8,278.3l-2.7,0.1l0.8,22.5l5.2-0.2c4-0.1,7.7-2.1,7.6-6.6
	c-0.1-2.6-2-5.2-4.7-5.5v-0.1c1.5-0.8,2.3-2.7,2.3-4.4C241.1,279.1,237.1,278.1,232.8,278.3L232.8,278.3z M233.3,290.4l1.7-0.1
	c2.5-0.1,5.8,0.4,5.9,3.6c0.1,3.2-2.6,4.1-5.2,4.2l-2.1,0.1L233.3,290.4L233.3,290.4z M233,280.8h0.8c2.6-0.1,4.8,0.4,4.9,3.5
	c0.1,3.2-2,3.8-4.7,3.9h-0.7L233,280.8L233,280.8z M259.2,273.8l-11.6,3.4l6.3,21.6l11.6-3.4l-0.7-2.5l-8.9,2.6l-2.4-8.2l8.7-2.5
	l-0.7-2.5l-8.7,2.5l-1.8-6l8.9-2.6L259.2,273.8L259.2,273.8z M264.2,272.2l10.8,19.7l2.5-1.4l-4.6-8.3l1-0.6l10.4,5.1l3-1.6
	l-10.9-5.2c2.7-1.9,3.3-5.3,1.7-8.1c-1-1.9-3-3.2-5.2-3.3c-2.1,0-4,1-5.7,1.9L264.2,272.2L264.2,272.2z M267.9,273.1l0.7-0.4
	c2.4-1.3,5.6-2.5,7.3,0.6c1.7,3.1-0.7,5.1-3.2,6.5l-0.8,0.4L267.9,273.1L267.9,273.1z M286.2,273.2c4.2,4.6,11.6,5.2,16.3,0.9
	c4.6-4.3,4.6-10.7,0.5-15.2l-0.6-0.7l-6.6,6l1.7,1.9l4.3-3.9c2.4,2.8,1.7,7.6-0.9,9.9c-3.6,3.3-9.5,2.6-12.7-0.9
	c-3.4-3.7-3.3-9.4,0.5-12.8c2-1.9,5-2.6,7.7-2.1l0.2-2.7c-3.5-0.6-7.1,0.6-9.7,3C282.1,261,281.9,268.4,286.2,273.2L286.2,273.2z
	 M312.2,211.2l-3,11.7l2.5,0.6l2.3-9l8.2,2.1l-2.2,8.7l2.5,0.6l2.2-8.7l6.1,1.5l-2.3,9l2.5,0.6l3-11.7L312.2,211.2L312.2,211.2z
	 M312.8,203.6l22.4,1.6l0.2-2.8l-22.4-1.6L312.8,203.6L312.8,203.6z M150.9,245.5c0,1.5,1.3,2.8,2.8,2.8s2.8-1.3,2.8-2.8
	s-1.3-2.8-2.8-2.8S150.9,244,150.9,245.5z M310,245.5c0,1.5,1.3,2.8,2.8,2.8s2.8-1.3,2.8-2.8s-1.3-2.8-2.8-2.8S310,244,310,245.5z"
	/>
<g>
	<path class="st0" d="M240.1,198.1l22.6-23.4l5.6,5.6l23.1,11.5l-11.5-23.1l-5.8-5.8l1.6-1.7l-5.4-5.4l-1.7,1.6L255.1,144
		l-11.6,11.6l13.3,13.3l-21.2,20.5v-29.5h0.5c2.2,0,3.9-1.8,3.9-3.9l-0.4-11h-4.4l0.4,9.8c0,0.4-0.3,0.7-0.7,0.7h-3.1
		c-0.4,0-0.7-0.3-0.7-0.7l0.4-9.8h-4.4l-0.4,11c0,2.2,1.8,3.9,3.9,3.9h0.5v29.5L207.9,167c4.9-4.4,10.5-8.1,16.5-11l-11.1-12.8
		c-14.8,8.1-27,20.3-35.1,35.1l12.7,11.1c2.9-6.1,6.6-11.6,11-16.6l24.4,25.3l-36.9,35.6c-0.9,0.9-1,2.3-0.1,3.2
		c1.6,1.8,3.3,3.5,5.1,5.1c0.9,0.8,2.4,0.8,3.2-0.1l31.8-33l-0.4,3v0.9l-0.2,5.8v0.3v0.9l-0.1,3.5l0,0l-0.1,3.6l-0.1,0.3v0.9
		l-0.7,22.5c0,0,0,0,0,0.1v0.1c0,0.6,0.2,1.1,0.6,1.5c0.4,0.4,0.9,0.6,1.5,0.6l0,0h0.1h6.1h0.1h0.1c0.6,0,1.1-0.2,1.5-0.6
		s0.6-0.9,0.6-1.5l-0.7-22.9v-0.8V227l-0.3-7.8v-0.5v-0.1l-0.2-5.9v-1l-0.1-0.6l-0.3-2.3l31.8,32.9c0.9,0.9,2.3,1,3.2,0.1
		c1.8-1.6,3.5-3.3,5.1-5.1c0.8-0.9,0.8-2.4-0.1-3.2L240.1,198.1z M230.5,158.1c-1.2,0-2.3-1-2.3-2.2l0.4-9.4h1.1l-0.3,8.1
		c0,1.3,1.1,2.4,2.4,2.4h3.1c1.3,0,2.4-1.1,2.4-2.4l-0.3-8.1h1.1l0.4,9.3c0,1.2-1,2.3-2.3,2.3h-2.1v32.8l-0.7,0.6l-0.6-0.6v-32.8
		L230.5,158.1L230.5,158.1z M235.7,212.2L235.7,212.2l0.4,11.2l0,0l0.3,10.6v0.1l0.5,16.6c0,0.2-0.1,0.3-0.2,0.4
		c-0.1,0.1-0.3,0.2-0.4,0.2h-6.1c-0.2,0-0.3-0.1-0.4-0.2c-0.1-0.1-0.2-0.3-0.2-0.4l0.5-15.9c0-0.1,0-0.1,0-0.2l0.2-6.9v-0.4v-0.1
		l0.1-4l0,0l0.1-3.9v-0.2v-0.2v-0.1l0.2-6.8l0,0c0,0,0.3-2.4,0.7-5.2l1.8-1.8l1.8,1.9C235.4,209.8,235.7,212.2,235.7,212.2z
		 M275.6,236.2l-4.3,4.3c-0.6,0.6-1.5,0.6-2.1,0l-6.6-7.1l0,0l-8.8-9.4l0,0l-1.1-1.2l0,0l-7.8-8.3l-0.6-0.6l-7.6-10.5
		c0-0.1-0.1-0.1-0.1-0.2l-3.3-3.2l-3.3,3.3c0,0-0.1,0.1-0.1,0.2l-7.6,10.5l-0.6,0.6l-8.9,9.5l0,0l-8.8,9.4l0,0l-6.6,7.1
		c-0.6,0.6-1.5,0.6-2.1,0l-4.3-4.3c-0.6-0.6-0.6-1.5,0-2.1l16.4-15.4l0.4-0.3l9.2-8.6l0.6-0.6l10.5-7.6c0.1,0,0.1-0.1,0.2-0.1
		l3.3-3.3l-4.7-4.7l-8.3-8.3L200.2,167l-4.2,4.2l-1.8-1.8l6-6l1.8,1.8l16.5,16.5l14.8,14.8l13.8-13.8l0,0l13-13l-1-1
		c-1.1-1.1-1.1-2.8,0-3.9l5.1-4.3c1.1-1,2.7-1,3.8,0.1l2.8,2.8c1,1,1.1,2.7,0.1,3.8l-4.3,5.1c-1.1,1.1-2.8,1.1-3.9,0l-0.7-0.7
		l-12.7,12.7l0,0l-14.1,14.1l3.3,3.3c0,0,0.1,0.1,0.2,0.1l10.5,7.6l0.6,0.6l9.2,8.7l0.3,0.2l16.4,15.4
		C276.2,234.7,276.2,235.6,275.6,236.2z"/>
	<path class="st0" d="M263.6,169.6c0.5,0.5,1.4,0.5,1.9,0l3.7-3.9c0.5-0.5,0.5-1.9,0-2.4l-1.2-1.2c-0.5-0.5-1.9-0.5-2.4,0l-3.9,3.7
		c-0.5,0.5-0.5,1.4,0,1.9L263.6,169.6z"/>
</g>
</svg>
